<svg xmlns="http://www.w3.org/2000/svg" width="300" height="528" viewBox="0 0 300 528"><path fill="#005494" d="M261.44 0H38.54A38.5 38.5 0 0 0 .01 38.48v451.08A38.48 38.48 0 0 0 38.54 528h222.88a38.52 38.52 0 0 0 38.57-38.44V38.48A38.5 38.5 0 0 0 261.44 0zM94.98 23.36h110.06c2.78 0 5.02 4.16 5.02 9.28 0 5.12-2.24 9.28-5.02 9.28H94.98c-2.78 0-5-4.16-5-9.28 0-5.12 2.22-9.28 5-9.28zm55.03 466.68a24.6 24.6 0 0 1-24.63-24.56 24.58 24.58 0 0 1 24.63-24.52 24.6 24.6 0 0 1 24.61 24.52 24.63 24.63 0 0 1-24.61 24.56zm121.1-84.08H28.91V64.88h242.2z"/></svg>