<svg xmlns="http://www.w3.org/2000/svg" width="768" height="594" viewBox="0 0 768 594"><path fill="#005494" d="M.2 593.08h300.84V148.76H.2zm156.77-22.28c-8.01 0-14.5-6.44-14.5-14.28 0-7.88 6.49-14.28 14.5-14.28s14.5 6.4 14.5 14.28c.03 7.84-6.49 14.28-14.5 14.28zM43.7 191.6h213.87l-.01 327.8H43.7zM149 42.68H631.1v192.64h42.49V.88H106.51v128.88H149zM544 371v-44H320v44zm21.83-119.48v334.6h202.05v-334.6zm105.51 13.88c2.7 0 4.88 2.12 4.88 4.8 0 2.64-2.18 4.8-4.88 4.8-2.7 0-4.89-2.16-4.89-4.8 0-2.68 2.2-4.8 4.9-4.8zm-29.06 16.04h58.12v4.6h-58.12zm27.15 290.24a11.6 11.6 0 0 1-11.65-11.48c0-6.32 5.2-11.48 11.65-11.48a11.6 11.6 0 0 1 11.66 11.48 11.6 11.6 0 0 1-11.66 11.48zm66.03-39.4c-52.47.32-111.2.48-137.21.28V302.48h137.21zM320.44 386.12v25.36H470.2v11.08H320.44v22.92h223.42v-59.36z"/></svg>